<svg width="632" height="195" viewBox="0 0 632 195" fill="none" xmlns="http://www.w3.org/2000/svg">
<path d="M57.9997 127.706C58.094 127.527 58.1882 127.347 58.2601 127.226C62.5884 128.02 66.5083 124.75 70.7358 124.175C78.1773 122.506 85.4184 119.095 92.9055 117.806C93.0153 117.486 93.2192 116.821 93.3267 116.474C92.8682 115.239 92.2718 115.13 91.5419 116.202L91.9375 114.237C84.189 115.176 76.5477 117.233 68.7946 118.117C61.4815 119.851 54.0221 120.001 46.7659 122.253C40.864 122.569 35.2923 125.853 29.4176 126.331C25.2305 126.734 21.4791 129.897 17.5983 132.165C14.9632 133.813 12.3276 130.067 10.3336 126.478C7.99247 122.496 7.35865 116.39 6.27364 111.094C5.27921 106.229 4.946 101.103 5.25432 96.1347C4.6092 93.3219 3.97758 90.5071 3.38646 87.6866C4.12526 86.5577 5.10978 85.7534 5.62506 84.0754C6.78197 79.2905 10.1859 80.4652 11.681 76.13C10.5782 76.0106 9.49348 75.9439 8.42685 75.9299C5.21804 67.6176 2.32476 58.0155 2.40535 47.7127C0.520272 41.5079 0.45686 34.5455 1.70646 28.4194C1.84607 26.8226 2.01267 25.222 2.19507 23.6468C2.39728 25.0842 2.77242 27.9355 2.95885 29.3475C5.08825 28.1863 7.20187 26.9998 9.32212 25.7293C9.33835 26.0866 9.37311 26.8286 9.38934 27.1859C7.9317 27.5597 6.4832 28.0428 5.08435 28.6295C7.88972 31.4664 10.7264 29.1255 13.5206 28.7272C19.987 26.5052 26.5328 24.7422 33.0173 22.5729C37.4556 23.2128 41.3558 18.5625 45.817 19.4758C48.9162 19.947 51.8027 17.8756 54.8058 17.1985C66.971 15.8241 78.8502 11.0323 91.0794 10.4233C115.87 5.34023 141.039 5.26591 166.02 2.61791C171.592 1.79587 177.285 2.8933 182.846 1.76862C191.457 0.0430992 200.318 2.43185 208.97 1.19843C211.377 0.74464 214.078 2.65584 216.267 0.407323C221.026 2.27402 225.712 0.96983 230.437 1.12613C239.165 1.92924 247.816 1.00039 256.52 1.1982C265.031 1.70018 273.519 1.59686 282.039 2.04224C287.4 1.13971 292.88 3.12505 298.284 2.74195C330.022 4.44243 361.794 7.21682 393.607 11.4517C396.931 11.8355 400.291 11.9928 403.616 11.906C414.542 14.3323 425.479 14.9311 436.411 16.9415C444.332 16.5871 452.295 19.6846 460.237 20.2401C466.792 22.1828 473.31 21.2261 479.865 23.3347C489.856 24.3728 499.862 27.2345 509.873 28.6845C520.47 29.4701 531.043 33.5512 541.651 35.4419C545.421 36.26 549.216 36.881 553.009 37.9725C555.981 39.5406 559.003 39.2482 562.021 40.0628C564.907 40.7581 567.803 42.2265 570.724 42.5293C570.984 43.1839 571.532 44.5166 571.806 45.1693C565.213 43.5917 558.629 42.6212 552.035 41.6801L552.061 42.9765C556.12 43.8089 560.077 46.3709 564.131 47.3146C560.88 49.9358 557.151 47.3137 553.707 48.2749C554.77 49.3959 555.859 50.4856 556.974 51.5716C558.392 53.6655 559.987 54.6002 561.658 55.6346C560.583 56.341 559.504 56.9928 558.465 57.6389C555.142 57.753 551.725 55.4459 548.52 56.8157C550.83 57.4824 553.191 57.6161 555.505 58.8354C554.292 60.1702 553.005 61.5987 551.505 61.1484C547.58 60.4354 543.979 63.1066 540.152 63.5691C540.177 63.8699 540.211 64.2799 540.264 64.7428L540.296 65.1255C540.332 65.5629 540.367 65.973 540.392 66.2737C542.865 66.6128 545.355 67.4751 547.848 68.6967C543.444 70.265 538.684 67.9004 534.274 69.8846C536.958 71.6045 539.716 72.401 542.473 73.0315C542.476 73.5567 542.46 74.6657 542.433 75.1674C538.614 74.5776 534.801 73.9038 530.986 73.5347L531.201 75.9385C532.736 76.1624 534.229 76.8625 535.607 78.7963C533.13 79.2324 530.671 78.4209 528.194 78.3591C528.048 78.9055 527.741 79.9728 527.582 80.5211C526.315 81.5318 525.451 78.3905 524.369 77.5487C522.701 76.5417 521.004 76.175 519.333 75.6384C519.86 76.2272 520.884 77.3539 521.409 77.9154C521.063 78.518 520.353 79.6704 519.994 80.2749C521.599 80.8483 523.165 80.4591 524.631 79.365C525.235 80.2194 525.857 81.1267 526.504 82.0027C528.518 82.0752 530.539 82.0638 532.571 82.3551C533.47 81.5077 534.385 80.6857 535.345 79.9126C535.077 81.9425 534.824 83.9705 534.588 86.0513C537.342 85.8247 540.064 85.0494 542.758 84.1121C543.072 84.593 543.703 85.6096 544.019 86.1179C544.283 85.1949 544.827 83.3745 545.094 82.4789C545.28 83.8908 545.651 86.6875 545.84 88.1268C546.2 86.222 546.501 84.2702 546.845 82.34C543.762 79.2937 540.889 82.9953 537.913 83.5026C537.627 81.7175 537.354 79.9304 537.095 78.1415C540.535 79.4216 544.358 80.5366 547.296 76.798L545.26 75.4837C547.861 73.4254 550.785 75.7198 553.57 75.71C557.459 75.9856 561.337 78.2546 565.237 78.6669C576.494 80.6311 587.712 84.5926 598.94 87.8609C597.925 88.9463 596.805 91.0701 595.532 90.062C592.926 88.4692 590.26 87.3 587.615 86.5428C587.554 87.6029 587.431 89.7229 587.369 90.783C588.779 91.7992 590.206 91.8725 591.543 90.8796C591.472 91.0004 591.353 91.2111 591.231 91.3943L591.124 91.5757C590.991 91.7882 590.87 91.9715 590.8 92.1197C589.762 92.9317 588.771 93.8199 587.813 94.7863C588.924 95.8176 589.988 97.1045 591.005 98.6471C591.457 98.4996 592.334 98.2086 592.786 98.0612C593.048 98.9091 593.6 100.601 593.862 101.449C594.645 99.7051 595.331 97.7814 596.03 95.8559C595.304 96.485 594.594 96.9736 593.888 97.3508C593.641 96.0305 593.612 94.7067 593.82 93.4322C593.614 92.7699 593.187 91.4199 592.97 90.7869C596.938 91.1895 600.995 96.0888 604.768 92.5355C602.975 91.3525 601.127 90.6477 599.334 90.931C599.243 90.3353 599.061 89.1439 598.971 88.5482C602.937 87.9552 606.961 88.7094 610.929 90.7443C616.399 93.5887 622.038 91.7613 627.417 95.9741C629.077 97.0378 630.257 99.8849 631.462 102.369C631.013 102.544 630.129 102.919 629.69 103.064C630.559 106.924 630.511 110.915 630.052 114.742C630.062 116.982 630.058 119.223 630.127 121.51C629.219 122.746 628.332 124.062 627.418 125.216C623.644 121.41 619.536 120.64 615.558 119.132C610.534 118.355 605.538 115.941 600.536 114.772C599.579 114.273 598.037 115.433 598.013 112.532C598.022 112.309 598.032 111.948 598.059 111.612L598.08 110.89C598.091 110.529 598.091 110.197 598.111 109.945C597.388 109.965 596.695 110.008 596.045 110.073C596.179 110.691 596.459 111.923 596.595 112.568L596.513 113.382C593.797 113.409 591.061 113.191 588.419 111.327C586.623 109.95 584.453 109.485 583.093 112.169C582.586 109.53 581.225 108.119 579.951 108.08C573.37 108.437 566.701 105.957 560.142 103.323C559.893 103.608 559.381 104.179 559.118 104.465C557.83 104.095 556.577 103.804 555.323 103.678C557.51 107.129 560.721 103.379 562.387 108.923C565.541 109.885 568.725 110.399 571.889 111.968L572.033 113.358C570.48 112.915 568.974 112.549 567.465 111.99C560.336 111.346 553.172 112.256 546.053 109.454C543.545 110.171 541.107 111.237 538.588 111.652C536.636 109.385 534.456 110.111 532.41 109.323C530.65 109.021 528.67 107.56 527.276 110C525.44 108.464 523.561 107.071 521.635 106.903C519.805 106.749 517.615 104.904 516.215 107.759C509.903 107.58 503.533 106.385 497.276 107.028C494.321 104.849 491.338 105.938 488.539 107.25C488.648 108.065 488.837 109.67 488.932 110.486C488.015 111.281 487.31 112.322 486.517 113.293C486.232 112.337 485.676 110.425 485.405 109.467C483.222 109.668 481.027 108.902 478.873 108.296C481.191 111.839 485.189 108.032 486.469 114.683C480.875 114.097 475.141 114.306 469.617 111.137C470.98 110.777 472.373 110.44 473.781 110.128C472.481 107.658 470.879 107.278 469.395 108.485C469.131 107.942 468.563 106.861 468.285 106.319C467.581 106.392 466.209 106.477 465.5 106.495C466.999 108.412 468.527 110.352 469.921 112.643C468.986 111.919 468.078 111.19 467.193 110.404C463.971 112.384 460.543 109.941 457.21 110.111C450.716 110.207 444.123 106.831 437.696 108.384C440.762 110.741 443.99 109.81 447.129 111.41C449.72 112.673 452.34 112.631 454.872 111.717C459.264 112.945 463.706 114.608 468.098 114.203C468.193 114.521 468.326 114.973 468.473 115.422L468.53 115.608C468.663 116.059 468.796 116.51 468.889 116.801C471.067 114.748 473.625 115.933 476.039 116.225C479.69 116.921 483.345 117.009 486.994 118.508C490.979 120.098 494.973 119.335 498.963 119.845C498.834 119.117 498.586 117.631 498.455 116.875C496.905 116.957 495.383 116.566 493.881 115.922C491.893 115.016 489.955 116.178 488.042 116.34C488.824 113.6 489.466 110.659 490.259 107.89C490.524 109.595 491.053 112.978 491.319 114.683C491.859 112.974 492.887 111.223 491.813 108.831C495.023 109.978 498.247 110.957 501.476 111.188L501.78 113.192C501.213 113.107 500.095 112.962 499.516 112.906C499.568 113.203 499.63 113.609 499.693 114.042L499.72 114.205C499.784 114.638 499.848 115.072 499.898 115.341C500.239 114.85 500.922 113.867 501.276 113.374C502.484 114.253 503.716 115.101 504.959 116.086C507.473 116.253 509.898 115.354 512.283 114.157L513.341 115.693L511.429 116.187C512.549 117.328 513.628 118.474 514.773 119.75C512.744 120.15 510.723 119.829 508.697 119.288C505.455 118.422 502.131 119.339 499.015 116.546C499.217 117.983 499.448 119.444 499.696 120.931C503.978 121.344 508.267 122.475 512.542 124.107C516.532 125.585 520.516 125.211 524.517 126.66C523.388 127.54 522.276 128.446 521.188 129.32C522.165 129.9 523.127 130.455 524.161 131.054C524.517 130.422 525.247 129.184 525.62 128.578C526.26 129.704 526.903 130.857 527.589 132.032C521.015 134.933 514.036 130.699 507.296 130.47C507.515 130.965 507.98 131.95 508.199 132.444C512.656 130.204 517.132 137.008 521.591 134.298C521.5 135.666 521.346 138.399 521.272 139.793L523.141 138.946C522.317 141.027 520.954 141.056 519.73 141.451C517.073 139.894 514.339 139.702 511.775 140.732C511.842 138.758 511.925 136.81 512.093 134.905C511.512 135.79 510.97 136.669 510.447 137.601L511.068 137.347C511.16 138.44 511.347 140.682 511.441 141.803C514.832 143.643 518.214 146.343 521.72 146.452C525.606 146.534 529.215 151.635 533.134 150.8C532.896 151.221 532.418 152.037 532.18 152.458C525.846 153.167 519.432 151.923 513.073 152C510.314 150.706 507.568 150.212 504.851 150.71C504.089 154.83 501.949 154.72 500.22 152.338C498.712 152.442 497.194 152.576 495.747 152.921C497.571 155.621 500.115 153.377 501.565 157.32C497.759 156.562 493.995 156.794 490.23 156.529C483.125 154.388 476.012 154.101 468.923 153.286C465.656 151.954 462.372 151.564 459.18 152.434C455.388 153.473 451.499 151.565 447.685 151.528C442.07 151.36 436.423 150.311 430.794 149.481C424.463 148.917 418.147 149.182 411.844 148.614C408.161 146.068 404.631 148.452 400.981 148.253C398.555 148.157 395.949 149.496 393.686 146.444C392.192 146.546 390.716 146.701 389.273 146.769C387.905 146.41 386.682 147.138 385.56 148.266C383.747 148.469 381.92 146.876 380.134 146.107C378.556 147.162 376.796 148.824 375.509 145.19C372.215 145.825 368.744 144.66 365.621 146.516C365.211 146.353 364.389 146 363.977 145.81C359.794 147.734 355.297 146.383 350.966 145.728C351.645 144.857 352.35 143.981 353.087 143.157C351.124 144.35 349.048 144.839 346.973 144.859C339.984 146.712 332.67 144.684 325.57 145.364C320.688 146.282 315.669 143.926 310.833 145.39C303.182 145.208 295.575 146.044 287.938 146.026C277.355 144.436 267.004 147.737 256.449 146.807C252.083 146.71 247.844 148.283 243.496 147.907C239.069 147.404 234.794 149.203 230.403 148.971C220.173 148.493 210.179 151.494 200.031 151.834C194.239 153.296 188.396 153.991 182.523 154.164C173.71 156.416 164.77 157.165 155.936 159.005C143.408 159.463 131.206 163.83 118.857 166.116C107.536 165.821 96.7267 171.318 85.6041 173.236C75.9556 175.303 66.4915 178.92 57.0478 182.618C50.3958 185.724 43.6219 188.515 37.4004 193.829C35.384 195.361 33.3176 193.193 31.4205 191.417C29.8399 187.382 27.4658 183.985 27.0942 178.727C26.1706 169.646 25.3996 160.267 26.0018 151.301C25.3887 148.871 24.7374 146.474 24.1041 144.129C25.1716 144.807 26.2303 145.541 27.3227 146.354C26.9766 143.36 26.7655 140.347 26.721 137.366C28.1024 138.856 29.652 139.908 31.1881 139.329C39.403 137.107 47.2406 132.172 55.4212 129.54C55.3121 128.726 55.1028 127.04 54.9936 126.226C55.2037 126.777 55.6507 127.875 55.863 128.453C56.3107 128.417 57.222 128.37 57.6698 128.334C57.7281 128.215 57.8224 128.036 57.9167 127.856L57.9997 127.706ZM539.17 134.78C539.634 139.831 541.277 132.211 539.17 134.78V134.78ZM500.526 133.953C500.739 135.029 501.158 137.1 501.355 138.15C501.065 138.275 500.631 138.475 500.186 138.704L499.79 138.872C499.342 139.074 498.924 139.299 498.62 139.426C501.95 140.86 505.326 140.877 508.654 140.651C507.752 139.341 506.834 138.172 505.885 137.117C506.226 136.128 506.594 135.135 506.964 134.169C504.81 134.062 502.652 133.899 500.523 133.926L500.526 133.953ZM512.907 135.978C514.365 139.367 516.681 138.151 518.577 138.932L518.187 136.553C516.393 136.339 514.66 136.033 512.907 135.978ZM530.122 128.351C532.096 128.595 534.063 129.089 536.073 129.439C535.832 130.469 535.36 132.501 535.131 133.529L537.232 132.843C536.453 133.977 535.629 135.063 534.86 136.168L535.119 132.563C532.733 133.595 530.256 133.865 527.805 134.131C528.013 132.857 528.234 131.58 528.484 130.327C530.026 131.933 531.674 134.327 533.185 131.649C532.421 130.845 530.875 129.184 530.122 128.351ZM618.575 117.319C618.909 119.346 619.515 119.73 620.404 118.442C620.005 116.451 619.399 116.067 618.575 117.319ZM557.109 124.698C557.653 129.738 559.117 121.922 557.109 124.698V124.698ZM613.752 115.019C615.862 112.477 614.175 120.076 613.752 115.019V115.019ZM545.84 121.601C546.981 119.723 547.869 124.3 547.088 125.739C545.94 127.701 544.944 122.974 545.84 121.601ZM518.674 127.355C518.425 129.437 518.849 130.262 519.931 129.804C520.121 127.674 519.699 126.876 518.674 127.355ZM549.158 122.733C549.725 127.714 551.225 120.003 549.158 122.733V122.733ZM541.176 120.385C542.434 120.897 543.738 121.458 545.03 122.048C544.624 122.909 544.232 123.767 543.866 124.621C543.604 124.105 543.108 123.069 542.846 122.553C541.954 123.483 541.094 124.463 540.242 125.387C540.539 123.712 540.82 122.012 541.176 120.385ZM533.334 119.068C534.144 119.118 534.984 119.192 535.868 119.315C535.159 124.23 532.343 123.221 530.287 121.826C531.67 121.712 533.054 121.764 534.497 121.862C534.206 121.157 533.625 119.773 533.334 119.068ZM536.29 120.279C536.603 118.298 537.156 118.219 537.951 120.042C537.569 122.005 537.013 122.057 536.29 120.279ZM521.51 116.023C524.117 115.845 526.749 116.438 529.383 117.556C528.459 118.435 527.824 119.826 527.489 121.699C526.694 121.176 525.861 120.687 525.122 120.183C525.703 120.1 526.888 119.904 527.469 119.821L527.43 118.056C525.988 118.123 524.575 118.214 523.187 118.274C523.241 121.862 522.163 123.344 520.412 122.819C520.3 121.811 520.104 119.792 520.006 118.782C520.71 118.71 522.145 118.56 522.863 118.486C522.525 117.87 521.848 116.639 521.51 116.023ZM604.916 108.505C606.883 105.568 605.552 113.504 604.916 108.505V108.505ZM596.008 105.708C596.108 108.543 599.553 109.546 599.695 106.676C598.606 105.254 597.073 104.892 596.008 105.708ZM579.998 101.461C584.092 104.999 588.56 104.363 592.837 105.523C592.517 105.126 591.877 104.332 591.554 103.908C587.7 102.576 583.819 101.414 579.998 101.461ZM601.738 99.9112C604.272 99.8267 600.869 104.544 601.738 99.9112V99.9112ZM502.801 112.493C503.582 111.386 504.453 111.344 505.427 112.368C505.576 114.476 502.849 114.699 502.801 112.493ZM568.381 98.7736C571.169 100.423 574.014 101.124 576.878 101.712C574.437 97.3571 571.169 98.9571 568.381 98.7736ZM548.31 103.128C548.785 104.223 549.51 104.562 550.495 104.09C550.94 104.358 553.576 103.208 551.981 102.107C550.726 101.954 549.301 101.742 548.31 103.128ZM584.799 85.5334C584.98 87.8591 584.76 89.9653 584.135 91.7973C584.502 92.2706 585.235 93.1897 585.602 93.663L584.868 94.6806C585.792 96.098 586.764 97.4258 587.874 98.2911C587.281 97.2414 586.722 96.2699 586.16 95.271L587.699 94.8857C586.673 91.7675 585.303 88.4494 587.054 85.8759L584.799 85.5334ZM547.191 77.0067C547.336 77.7607 547.632 79.1846 547.789 79.9093C548.394 79.9613 549.616 80.0361 550.233 80.0589C550.031 82.3838 549.861 84.7595 549.761 87.1529C550.51 85.3309 551.232 83.5128 551.934 81.6146C556.289 79.1402 560.847 83.1658 565.341 83.8254C564.527 87.1506 562.945 89.1466 560.989 88.7891C560.953 88.3517 560.9 87.7229 560.845 87.0668L560.797 86.4927C560.742 85.8365 560.687 85.1804 560.651 84.743C559.533 85.262 558.46 85.8298 557.408 86.4778C557.499 88.8716 558.787 89.5733 559.671 90.8305C561.357 90.8946 563.09 91.2008 564.825 91.7004C564.745 90.7435 564.569 88.8044 564.489 87.8475C565.639 87.5454 566.809 87.3233 568.023 87.1501C567.462 89.4157 566.462 90.8584 565.431 92.0843C566.961 91.9215 568.543 92.0557 570.13 92.2444C571.696 93.9854 573.47 94.2859 575.188 95.0646C577.758 95.5834 581.082 97.7653 582.612 92.54C583.238 94.4703 583.478 97.3408 584.809 98.064C585.366 93.6137 583.438 89.0195 581.107 89.0752C581.51 86.2235 585.006 88.4917 584.174 85.7332C577.199 84.6526 570.207 82.5508 563.244 80.8045C559.68 79.1824 556.077 80.36 552.577 78.0371C550.789 76.9088 548.943 76.8952 547.188 76.9794L547.191 77.0067ZM540.057 101.456C542.209 102.034 544.385 102.415 546.555 102.715C545.496 101.649 544.516 100.709 543.513 99.6627C542.343 100.217 541.174 100.771 540.057 101.456ZM555.654 95.5528C558.223 98.5064 561.287 99.2039 563.906 97.3643C561.166 96.1227 558.392 95.3008 555.654 95.5528ZM474.052 107.489C474.296 108.118 474.768 109.351 475.012 109.981C476.319 109.601 477.639 109.219 478.993 108.749C477.349 107.877 475.686 107.588 474.052 107.489ZM571.867 85.2467C573.397 85.2499 575.1 85.0348 576.464 87.3024C577.905 87.5397 579.384 87.9099 580.832 88.893C579.81 90.0623 578.828 91.2259 577.848 92.4168C577.582 91.6801 577.031 90.1542 576.748 89.3921C576.629 89.6027 576.436 89.9069 576.232 90.2404L576.064 90.5133C575.871 90.8175 575.677 91.1217 575.558 91.3323C574.301 91.3179 573.083 91.2978 571.884 91.3305L571.599 89.0748L572.592 89.3483C572.325 87.9479 572.062 86.6021 571.853 85.2486L571.867 85.2467ZM463.954 106.633C466.043 104.011 464.384 111.772 463.954 106.633V106.633ZM536.228 90.4653L536.378 91.7717C541.127 92.6993 545.898 94.3708 550.66 94.6326L550.523 93.3242C545.756 92.5098 540.978 90.9223 536.228 90.4653ZM432.629 107.086C432.688 109.264 434.56 108.941 435.008 107.605C434.906 105.406 433.016 105.676 432.629 107.086ZM415.87 105.962C416.894 106.286 417.93 106.581 419.004 106.843C418.991 107.509 418.966 108.84 418.951 109.479C420.798 105.758 424.045 107.508 426.524 108.731C427.847 108.377 429.199 108.046 430.551 107.715C430.739 107.356 431.103 106.64 431.291 106.281C428.266 105.882 425.255 105.482 422.297 106.208C421.627 106.359 420.968 106.48 420.34 106.653C420.153 106.707 419.769 106.845 419.582 106.899C418.371 105.163 417.077 104.545 415.87 105.962ZM533.326 89.4127C535.417 86.8184 533.787 94.4372 533.326 89.4127V89.4127ZM432.647 102.077C432.457 104.538 432.971 105.295 434.178 104.376C434.337 101.863 433.823 101.107 432.647 102.077ZM410.357 105.863C412.354 106.878 414.653 107.574 415.856 103.834C413.941 103.968 411.791 103.251 410.357 105.863ZM405.977 103.306C404.971 104.998 406.562 108.672 407.532 106.708C408.492 104.966 406.888 101.295 405.977 103.306ZM522.445 88.5016C524.346 90.333 526.378 90.1264 528.333 89.6541C528.098 86.0358 525.942 88.6671 524.901 88.1514C524.026 86.6716 523.163 87.6245 522.445 88.5016ZM400.898 103.67C402.425 104.282 404.014 104.83 405.576 105.216C404.519 102.047 402.013 100.662 400.898 103.67ZM393.614 103.131C394.06 105.53 396.549 105.728 396.701 103.134C396.07 100.983 393.795 100.56 393.614 103.131ZM498.725 83.3621C498.58 85.8726 499.1 86.5453 500.289 85.4076C500.407 82.9009 499.887 82.2282 498.725 83.3621ZM365.975 101.926C367.721 102.23 369.486 102.587 371.246 102.557C370.106 98.5702 366.146 95.8149 365.975 101.926ZM513.371 77.678C513.758 77.8994 514.53 78.3149 514.931 78.5344C515.509 76.2943 513.038 74.8482 513.371 77.678ZM522.248 74.8909C524.479 75.4305 526.686 74.867 528.686 73.1433C526.437 72.3849 523.81 71.3486 522.248 74.8909ZM509.715 73.3301C509.08 76.519 512.594 77.3737 512.551 74.2537C511.986 72.2318 510.39 71.9336 509.715 73.3301ZM497.647 74.8844C497.26 76.7931 498.981 78.4289 499.6 77.0127C499.969 75.0513 498.225 73.64 497.647 74.8844ZM531.883 69.5614C532.125 71.6295 532.67 71.9391 533.534 70.5157C533.237 68.4279 532.692 68.1183 531.883 69.5614ZM96.5015 114.582L96.4506 116.913C100.532 114.921 104.848 114.914 108.977 113.164C108.916 114.224 108.788 116.289 108.74 117.347C109.021 115.813 109.305 114.307 109.631 112.821C110.808 112.681 111.994 112.319 113.104 111.552C107.513 111.989 102.006 113.272 96.5015 114.582ZM94.025 115.35C94.1469 117.297 96.3099 117.68 95.8858 115.223C95.4245 115.262 94.4863 115.312 94.025 115.35ZM565.036 47.8495C565.7 52.8452 566.99 44.9152 565.036 47.8495V47.8495ZM550.79 48.3586C551.075 50.4483 551.631 50.7287 552.434 49.2309C552.094 47.1216 551.549 46.812 550.79 48.3586ZM545.841 40.4605C547.765 42.5653 549.881 43.2043 551.965 43.1286C550.69 40.7928 549.059 41.053 547.567 41.0167C547.385 40.9597 547.103 40.8615 546.822 40.7632L546.583 40.6866C546.302 40.5884 546.023 40.5175 545.841 40.4605ZM45.9422 67.1795C43.9018 67.6086 41.8978 68.3093 39.9187 69.1447C43.7374 70.8688 47.2829 68.5099 50.8816 67.2776C55.12 66.5075 59.5958 68.2486 63.6425 65.5139C71.673 63.3733 80.001 63.3204 87.8743 59.7913C84.1244 59.0532 80.5628 61.0548 76.8611 61.0569C66.5716 63.2982 56.1496 64.1199 45.9422 67.1795ZM14.3105 25.4332C14.2874 23.3616 14.7999 22.9566 15.8816 24.1303C15.8866 26.1491 15.3629 26.5834 14.3105 25.4332Z" fill="#272523"/>
</svg>
